<svg viewBox="0 0 100 100" xmlns="http://www.w3.org/2000/svg">
  <defs>
    <linearGradient id="bgGradient" x1="0%" y1="0%" x2="100%" y2="100%">
      <stop offset="0%" style="stop-color:#7C3AED;stop-opacity:1" />
      <stop offset="100%" style="stop-color:#A855F7;stop-opacity:1" />
    </linearGradient>
    <linearGradient id="sparkleGradient" x1="0%" y1="0%" x2="100%" y2="100%">
      <stop offset="0%" style="stop-color:#FFFFFF;stop-opacity:1" />
      <stop offset="100%" style="stop-color:#F3E8FF;stop-opacity:1" />
    </linearGradient>
  </defs>
  
  <!-- Rounded square background -->
  <rect x="10" y="10" width="80" height="80" rx="18" ry="18" fill="url(#bgGradient)" />
  
  <!-- Form lines representing input fields -->
  <rect x="25" y="28" width="35" height="3" rx="1.5" fill="white" opacity="0.9" />
  <rect x="25" y="36" width="25" height="3" rx="1.5" fill="white" opacity="0.7" />
  
  <rect x="25" y="48" width="40" height="3" rx="1.5" fill="white" opacity="0.9" />
  <rect x="25" y="56" width="30" height="3" rx="1.5" fill="white" opacity="0.7" />
  
  <rect x="25" y="68" width="35" height="3" rx="1.5" fill="white" opacity="0.9" />
  
  <!-- Dynamic sparkle/star element -->
  <g transform="translate(65, 35)">
    <path d="M 0 -8 L 2 -2 L 8 0 L 2 2 L 0 8 L -2 2 L -8 0 L -2 -2 Z" 
          fill="url(#sparkleGradient)" opacity="0.95">
      <animateTransform 
        attributeName="transform" 
        type="rotate" 
        values="0;360" 
        dur="4s" 
        repeatCount="indefinite"/>
    </path>
    <!-- Small sparkles -->
    <circle cx="12" cy="-3" r="1.5" fill="white" opacity="0.8">
      <animate attributeName="opacity" values="0.8;0.3;0.8" dur="2s" repeatCount="indefinite"/>
    </circle>
    <circle cx="-10" cy="8" r="1" fill="white" opacity="0.6">
      <animate attributeName="opacity" values="0.6;0.2;0.6" dur="2.5s" repeatCount="indefinite"/>
    </circle>
  </g>
</svg>